<svg
   width="45.28994mm"
   height="37.117111mm"
   viewBox="0 0 45.28994 37.117111"
   version="1.1"
   id="svg5"
   inkscape:version="1.2.1 (9c6d41e410, 2022-07-14)"
   sodipodi:docname="fortune.svg"
   xmlns:inkscape="http://www.inkscape.org/namespaces/inkscape"
   xmlns:sodipodi="http://sodipodi.sourceforge.net/DTD/sodipodi-0.dtd"
   xmlns:xlink="http://www.w3.org/1999/xlink"
   xmlns="http://www.w3.org/2000/svg"
   xmlns:svg="http://www.w3.org/2000/svg">
  <sodipodi:namedview
     id="namedview7"
     pagecolor="#ffffff"
     bordercolor="#000000"
     borderopacity="0.25"
     showgrid="false"/>
  <defs
     id="defs2">
    <radialGradient
       inkscape:collect="always"
       id="radialGradient6274-3"
       cx="304.76956"
       cy="393.16846"
       fx="304.76956"
       fy="393.16846"
       r="85.58728"
       gradientTransform="matrix(0.26458333,0,0,0.2168398,-9.0590648,83.893967)"
       gradientUnits="userSpaceOnUse">
         <stop
            stop-color="#fdfc9f"
            style="stop-opacity:1;"
            offset="0"
            id="stop3396" />
         <stop
            stop-color="#fffe1c"
            style="stop-opacity:1;"
            offset="1"
            id="stop3398" />
       </radialGradient>
  </defs>
  <g
     inkscape:label="Camada 1"
     inkscape:groupmode="layer"
     id="layer1"
     transform="translate(-48.932916,-150.58976)">
    <path
       style="mix-blend-mode:normal;fill:url(#radialGradient6274-3);fill-opacity:1;fill-rule:nonzero;stroke:#000000;stroke-width:0.2;stroke-dasharray:none;stroke-opacity:1"
       d="m 52.292826,186.89485 c -1.625909,-2.78393 -2.838828,-6.57831 -3.173561,-9.92787 -0.177133,-1.77251 -0.06907,-4.94173 0.225275,-6.60689 1.022252,-5.78303 3.791344,-10.72611 8.059644,-14.38721 3.257013,-2.79367 7.462641,-4.65335 11.693044,-5.17052 1.213027,-0.14829 3.767828,-0.14911 4.95785,-0.002 10.421371,1.29186 18.643759,9.85662 19.927409,20.75717 0.16445,1.39649 0.18845,4.27498 0.0462,5.53735 -0.35983,3.1925 -1.1841,5.97363 -2.57826,8.69919 l -0.5248,1.02598 -0.34367,-0.14288 c -3.833509,-1.59383 -7.939855,-3.74629 -10.211968,-5.3529 -1.722623,-1.21806 -3.18176,-2.93322 -5.082612,-5.9744 -1.704451,-2.72696 -3.92764,-6.77364 -3.910711,-7.11831 0.0057,-0.11576 -0.02784,-0.21048 -0.0745,-0.21048 -0.04666,0 -0.144579,-0.0229 -0.217585,-0.0509 -0.0979,-0.0376 -0.338397,0.42281 -0.916265,1.75395 -2.063978,4.75447 -4.4789,8.92054 -6.161576,10.62954 -1.652622,1.67848 -5.13543,3.93255 -10.409849,6.73725 l -0.907465,0.48255 z"
       id="inteiro"
       sodipodi:nodetypes="ssssssssscssssscssscs"
       inkscape:export-filename="inteiro.svg"
       inkscape:export-xdpi="96"
       inkscape:export-ydpi="96" />
  </g>
</svg>