<?xml version="1.0" encoding="UTF-8" standalone="no"?>
<!-- Created with Inkscape (http://www.inkscape.org/) -->

<svg
   width="45.290535mm"
   height="37.116455mm"
   viewBox="0 0 45.290535 37.116455"
   version="1.1"
   id="svg5"
   inkscape:version="1.2.1 (9c6d41e410, 2022-07-14)"
   sodipodi:docname="fortune.svg"
   xmlns:inkscape="http://www.inkscape.org/namespaces/inkscape"
   xmlns:sodipodi="http://sodipodi.sourceforge.net/DTD/sodipodi-0.dtd"
   xmlns:xlink="http://www.w3.org/1999/xlink"
   xmlns="http://www.w3.org/2000/svg"
   xmlns:svg="http://www.w3.org/2000/svg">
  <sodipodi:namedview
     id="namedview7"
     pagecolor="#ffffff"
     bordercolor="#000000"
     borderopacity="0.25"
     inkscape:showpageshadow="2"
     inkscape:pageopacity="0.0"
     inkscape:pagecheckerboard="0"
     inkscape:deskcolor="#d1d1d1"
     inkscape:document-units="mm"
     showgrid="false"
     inkscape:zoom="2"
     inkscape:cx="109.25"
     inkscape:cy="839.25"
     inkscape:window-width="1920"
     inkscape:window-height="1003"
     inkscape:window-x="0"
     inkscape:window-y="0"
     inkscape:window-maximized="1"
     inkscape:current-layer="layer1" />
  <defs
     id="defs2">
    <radialGradient
       inkscape:collect="always"
       xlink:href="#linearGradient3406"
       id="radialGradient6274-6"
       cx="304.76956"
       cy="393.16846"
       fx="304.76956"
       fy="393.16846"
       r="85.58728"
       gradientTransform="matrix(0.26458333,0,0,0.2168398,-9.2968474,132.74918)"
       gradientUnits="userSpaceOnUse">
         <stop
            style="stop-color:#fdfc9f;stop-opacity:1;"
            offset="0"
            id="stop3402" />
         <stop
            style="stop-color:#fffe1c;stop-opacity:1;"
            offset="1"
            id="stop3404" />
       </radialGradient>
  </defs>
  <g
     inkscape:label="Camada 1"
     inkscape:groupmode="layer"
     id="layer1"
     transform="translate(-48.695092,-199.44557)">
    <path
       id="partido"
       style="mix-blend-mode:normal;fill:url(#radialGradient6274-6);fill-opacity:1;fill-rule:nonzero;stroke:#000000;stroke-width:0.2;stroke-dasharray:none;stroke-opacity:1"
       d="m 71.347255,199.54561 c -0.93908,3.6e-4 -1.88119,0.038 -2.48771,0.11214 -4.2304,0.51717 -8.43633,2.37656 -11.69334,5.17023 -4.2683,3.66109 -7.03721,8.60421 -8.05946,14.38723 -0.29434,1.66516 -0.40244,4.83433 -0.22531,6.60683 0.33474,3.34956 1.54755,7.14415 3.17345,9.92808 l 0.39688,0.67851 0.90744,-0.48266 c 5.27441,-2.80469 8.75708,-5.05857 10.4097,-6.73705 1.68267,-1.709 4.0974,-5.87486 6.16138,-10.62933 0.57787,-1.33114 0.81832,-1.79201 0.91622,-1.75441 0.073,0.028 0.17142,0.0512 0.21808,0.0512 0.0467,0 0.0801,0.0946 0.0744,0.21032 -0.002,0.0501 0.0466,0.18587 0.13022,0.37672 0.3053,-0.0846 0.61177,-0.16763 0.9033,-0.29352 0.005,-0.003 0.16302,-0.0799 0.1757,-0.0749 0.0165,0.007 0.004,0.0396 0.0181,0.0506 0.10191,0.079 -0.10459,-0.53195 -0.0532,-0.37465 -0.19678,-0.67228 -0.39023,-1.34904 -0.43769,-2.05207 -0.008,-0.41544 -0.0198,-0.83229 0.20102,-1.20665 0.22005,-0.37307 0.56993,-0.56114 0.96583,-0.6935 1.0281,-0.38055 2.05897,-0.75384 3.0701,-1.17822 0.43105,-0.1876 0.66689,-0.28742 1.08985,-0.48214 0.14443,-0.0665 0.28788,-0.13482 0.43098,-0.20412 0.0828,-0.0401 0.15545,-0.13191 0.2465,-0.12609 -0.095,-0.26871 -0.25508,-0.51566 -0.35553,-0.78187 -0.23774,-0.50414 -0.49337,-0.99946 -0.73071,-1.50378 -0.22945,-0.49682 -0.63053,-1.26376 -0.35915,-1.81126 0.0601,-0.12123 0.17426,-0.20661 0.26148,-0.31006 0.0906,-0.0482 0.17764,-0.10399 0.27182,-0.14469 0.0881,-0.0381 0.18181,-0.0622 0.27337,-0.091 0.40683,-0.12802 0.82482,-0.22153 1.22008,-0.38448 0.6607,-0.27601 1.30613,-0.58665 1.9544,-0.89038 0.33475,-0.15862 0.66791,-0.31903 0.99012,-0.5023 0.0801,-0.0455 0.15803,-0.0944 0.2372,-0.14159 0.0386,-0.023 0.0709,-0.0667 0.11575,-0.0687 0.0225,-9e-4 0.0162,0.042 0.0243,0.063 0.0768,-0.0213 0.0284,10e-4 -0.007,-0.16795 -0.0624,-0.2998 -0.14153,-0.59588 -0.20464,-0.89555 -0.0892,-0.39464 -0.16711,-0.7916 -0.23977,-1.1896 -2.30636,-1.20785 -4.83743,-2.02048 -7.51427,-2.35231 -0.59502,-0.0736 -1.53106,-0.11042 -2.47014,-0.11007 z m 11.05307,3.05873 c 0.0269,0.12914 0.0546,0.25835 0.0837,0.38706 0.0638,0.30162 0.1426,0.6 0.20567,0.90175 0.0126,0.0603 0.0329,0.11979 0.0357,0.18139 0.005,0.10072 -0.009,0.20108 -0.0139,0.30179 -0.0637,0.12164 -0.10658,0.25724 -0.1912,0.36535 -0.13633,0.17417 -0.43905,0.35504 -0.62477,0.46405 -0.34855,0.2046 -0.71433,0.3772 -1.079,0.55036 -0.66119,0.31056 -1.32029,0.62571 -1.9942,0.90795 -0.42482,0.17849 -0.87536,0.28002 -1.31361,0.41806 -0.26894,0.0847 -0.18118,0.0393 -0.34985,0.15193 0.0215,0.0459 0.0904,-0.0354 0.11524,-0.006 0.0257,0.0301 0.0274,0.0746 0.0403,0.11214 0.0269,0.0785 0.0502,0.15826 0.0791,0.23616 0.0969,0.26202 0.12902,0.31625 0.24856,0.57206 0.23711,0.50231 0.49098,0.99682 0.72812,1.49913 0.16437,0.36961 0.36003,0.72427 0.4656,1.11621 0.002,0.0927 0.0406,0.19252 0.005,0.27802 -0.18695,0.44509 -0.35456,0.51752 -0.74775,0.72761 -0.15919,0.0851 -0.32512,0.15767 -0.48886,0.23357 -0.39438,0.18285 -0.71798,0.32101 -1.11776,0.49506 -1.02698,0.4318 -2.07472,0.81174 -3.11919,1.19838 -0.1623,0.0642 -0.36211,0.10867 -0.48524,0.25011 -0.12205,0.14021 -0.079,0.58702 -0.0713,0.74363 0.0494,0.62293 0.22593,1.22216 0.40049,1.81849 0.12668,0.38301 0.17174,0.76554 -0.0878,1.11104 -0.14306,0.19041 -0.30799,0.25973 -0.5054,0.37311 -0.2985,0.14098 -0.61431,0.23585 -0.93121,0.32504 0.75957,1.48435 2.17851,3.99226 3.36311,5.8875 1.90085,3.04118 3.36027,4.75625 5.08289,5.97431 2.27211,1.60661 6.37827,3.75933 10.21178,5.35316 l 0.34365,0.14263 0.52503,-1.02578 c 1.39415,-2.72555 2.21831,-5.50671 2.57814,-8.69921 0.14228,-1.26237 0.11845,-4.14116 -0.046,-5.53764 -0.90224,-7.66161 -5.23235,-14.16876 -11.34453,-17.80822 z m -4.49792,8.29303 c -0.005,0.0419 -0.0116,0.0885 0.0269,0.0972 -0.007,-0.0329 -0.0171,-0.065 -0.0269,-0.0972 z" />
  </g>
</svg>
