<?xml version="1.0" encoding="UTF-8" standalone="no"?>
<!-- Created with Inkscape (http://www.inkscape.org/) -->

<svg
   width="45.237633mm"
   height="28.507736mm"
   viewBox="0 0 45.237633 28.507736"
   version="1.1"
   id="svg5"
   inkscape:version="1.2.1 (9c6d41e410, 2022-07-14)"
   sodipodi:docname="fortune.svg"
   xmlns:inkscape="http://www.inkscape.org/namespaces/inkscape"
   xmlns:sodipodi="http://sodipodi.sourceforge.net/DTD/sodipodi-0.dtd"
   xmlns:xlink="http://www.w3.org/1999/xlink"
   xmlns="http://www.w3.org/2000/svg"
   xmlns:svg="http://www.w3.org/2000/svg">
  <sodipodi:namedview
     id="namedview7"
     pagecolor="#ffffff"
     bordercolor="#000000"
     borderopacity="0.25"
     inkscape:showpageshadow="2"
     inkscape:pageopacity="0.0"
     inkscape:pagecheckerboard="0"
     inkscape:deskcolor="#d1d1d1"
     inkscape:document-units="mm"
     showgrid="false"
     inkscape:zoom="2"
     inkscape:cx="109.25"
     inkscape:cy="839.25"
     inkscape:window-width="1920"
     inkscape:window-height="1003"
     inkscape:window-x="0"
     inkscape:window-y="0"
     inkscape:window-maximized="1"
     inkscape:current-layer="layer1" />
  <defs
     id="defs2">
    <radialGradient
       inkscape:collect="always"
       xlink:href="#linearGradient3412"
       id="radialGradient6274-6-2"
       cx="304.76956"
       cy="393.16846"
       fx="304.76956"
       fy="393.16846"
       r="85.58728"
       gradientTransform="matrix(-0.03334928,-0.22347384,0.19200973,-0.0302176,0.25012629,337.73361)"
       gradientUnits="userSpaceOnUse">
      <stop
         style="stop-color:#fdfc9f;stop-opacity:1;"
         offset="0"
         id="stop3408" />
      <stop
         style="stop-color:#fffe1c;stop-opacity:1;"
         offset="1"
         id="stop3410" />
   </radialGradient>
    <radialGradient
       inkscape:collect="always"
       xlink:href="#linearGradient3418"
       id="radialGradient6274-6-7"
       cx="304.76956"
       cy="393.16846"
       fx="304.76956"
       fy="393.16846"
       r="85.58728"
       gradientTransform="matrix(0.06196179,0.25722573,-0.21080988,0.05078089,140.50402,156.86403)"
       gradientUnits="userSpaceOnUse">
         <stop
            style="stop-color:#fdfc9f;stop-opacity:1;"
            offset="0"
            id="stop3414" />
         <stop
            style="stop-color:#fffe1c;stop-opacity:1;"
            offset="1"
            id="stop3416" />
   </radialGradient>
  </defs>
  <g
     inkscape:label="Camada 1"
     inkscape:groupmode="layer"
     id="layer1"
     transform="translate(-48.928468,-250.72044)">
    <g
       id="quebrado">
      <path
         id="path4226-1-8"
         style="mix-blend-mode:normal;fill:url(#radialGradient6274-6-2);fill-opacity:1;fill-rule:nonzero;stroke:#000000;stroke-width:0.174983;stroke-dasharray:none;stroke-opacity:1"
         d="m 49.233023,260.31116 c 0.11868,0.79314 0.27077,1.58363 0.41285,2.08555 0.99116,3.50106 3.16777,6.79436 6.05207,9.15602 3.77986,3.09492 8.50595,4.74477 13.75563,4.8023 1.51156,0.0166 4.33147,-0.33378 5.87864,-0.73065 2.92383,-0.74948 6.13101,-2.3027 8.39123,-4.0639 l 0.5508,-0.42976 -0.54177,-0.69919 c -3.14834,-4.06404 -5.58312,-6.69151 -7.27769,-7.85347 -1.72539,-1.18306 -5.71859,-2.64207 -10.18877,-3.72281 -1.25156,-0.30257 -1.68996,-0.44145 -1.66901,-0.52938 0.0155,-0.0657 0.0238,-0.15191 0.0178,-0.19133 -0.006,-0.0392 0.0737,-0.0808 0.17686,-0.0921 0.0445,-0.005 0.1587,-0.0652 0.31718,-0.16241 -0.11342,-0.24607 -0.22559,-0.49336 -0.37377,-0.72206 -0.003,-0.003 -0.0913,-0.12654 -0.0884,-0.13796 0.005,-0.0148 0.0345,-0.009 0.0428,-0.0219 0.057,-0.0971 -0.45783,0.16256 -0.32507,0.0971 -0.57049,0.25992 -1.14537,0.5176 -1.76193,0.65567 -0.36685,0.0647 -0.7345,0.13258 -1.0938,-0.002 -0.35812,-0.13382 -0.56872,-0.40319 -0.73583,-0.71911 -0.46657,-0.81533 -0.92704,-1.634 -1.43029,-2.42891 -0.22047,-0.3379 -0.33855,-0.52319 -0.56429,-0.8533 -0.0772,-0.11268 -0.15565,-0.22438 -0.23507,-0.33559 -0.0461,-0.0644 -0.13643,-0.11289 -0.14269,-0.19063 -0.22598,0.1177 -0.42449,0.2873 -0.64754,0.40925 -0.41645,0.27106 -0.82282,0.55599 -1.23949,0.82673 -0.41101,0.26304 -1.03957,0.70867 -1.55857,0.55578 -0.11493,-0.0338 -0.20483,-0.11854 -0.30761,-0.17753 -0.0541,-0.0698 -0.11448,-0.13556 -0.16234,-0.20943 -0.0449,-0.0692 -0.078,-0.1449 -0.11503,-0.21823 -0.16456,-0.32579 -0.30016,-0.66578 -0.49423,-0.97692 -0.3277,-0.5196 -0.6841,-1.02146 -1.03478,-1.52668 -0.18269,-0.26061 -0.36668,-0.51967 -0.56957,-0.76627 -0.0504,-0.0614 -0.10356,-0.12033 -0.15527,-0.1806 -0.0253,-0.0293 -0.068,-0.0507 -0.0754,-0.0882 -0.004,-0.0188 0.0352,-0.0192 0.0527,-0.0294 -0.0283,-0.0619 -0.003,-0.0241 -0.14792,0.029 -0.2576,0.0945 -0.50983,0.20249 -0.76721,0.29763 -0.33808,0.13069 -0.67979,0.25176 -1.02324,0.36808 -0.77884,2.11632 -1.17939,4.36736 -1.13583,6.67455 0.01,0.5128 0.0953,1.30855 0.21388,2.10168 z m 9.22566,-7.11856 c 0.0379,-8.1e-4 0.0798,-0.002 0.0827,-0.0365 -0.0285,0.01 -0.0553,0.0238 -0.0827,0.0365 z"
         sodipodi:nodetypes="ccssscccsscsscccsccsccsscccscsccccsccscccccccc"
         inkscape:transform-center-x="1.070014"
         inkscape:transform-center-y="-0.68197841" />
      <path
         id="path4226-1-0"
         style="mix-blend-mode:normal;fill:url(#radialGradient6274-6-7);fill-opacity:1;fill-rule:nonzero;stroke:#000000;stroke-width:0.2;stroke-dasharray:none;stroke-opacity:1"
         d="m 94.065663,262.37038 c -0.11916,0.0564 -0.23838,0.1136 -0.35672,0.17198 -0.27831,0.13265 -0.54996,0.2791 -0.82853,0.4111 -0.0556,0.0263 -0.10849,0.0604 -0.16797,0.0772 -0.097,0.0273 -0.19756,0.0383 -0.29665,0.0571 -0.13307,-0.0339 -0.27503,-0.0435 -0.39998,-0.10028 -0.20103,-0.0923 -0.44796,-0.34374 -0.59746,-0.49872 -0.28056,-0.29092 -0.53399,-0.60614 -0.78774,-0.92012 -0.45678,-0.57007 -0.91751,-1.13703 -1.34972,-1.7261 -0.27298,-0.37125 -0.47722,-0.78546 -0.71405,-1.17921 -0.14544,-0.24155 -0.0806,-0.16694 -0.22963,-0.30451 -0.039,0.0323 0.0552,0.0797 0.0329,0.11064 -0.0238,0.0316 -0.066,0.0441 -0.0995,0.0657 -0.0697,0.0449 -0.1421,0.0857 -0.21092,0.13241 -0.23208,0.15553 -0.27725,0.1995 -0.49795,0.37562 -0.43281,0.34815 -0.85412,0.71078 -1.28692,1.05897 -0.32089,0.24628 -0.61981,0.51962 -0.97613,0.71408 -0.09,0.0226 -0.1777,0.0845 -0.26914,0.0699 -0.47648,-0.0775 -0.58616,-0.22357 -0.88268,-0.55629 -0.12007,-0.13473 -0.22948,-0.2791 -0.3415,-0.42058 -0.27011,-0.34063 -0.48023,-0.62286 -0.74308,-0.97076 -0.66028,-0.89729 -1.27502,-1.82692 -1.89552,-2.75182 -0.10039,-0.1428 -0.19011,-0.32676 -0.35682,-0.41313 -0.16497,-0.0856 -0.58918,0.0607 -0.73965,0.10483 -0.59404,0.19391 -1.13525,0.50586 -1.67411,0.81523 -0.3427,0.21285 -0.70402,0.34627 -1.10074,0.17473 -0.21845,-0.0949 -0.32462,-0.23863 -0.48107,-0.40399 -0.20698,-0.25718 -0.37315,-0.54198 -0.53404,-0.82919 -1.2652,1.08605 -3.37108,3.05286 -4.93621,4.64834 -2.51146,2.56021 -3.83703,4.38071 -4.61783,6.34067 -1.02981,2.58517 -2.16108,7.08128 -2.81283,11.18143 l -0.0582,0.36751 1.12021,0.2702 c 2.97624,0.71709 5.87307,0.86702 9.06106,0.46921 1.2606,-0.15729 4.05376,-0.85464 5.37289,-1.34156 7.23725,-2.67139 12.54941,-8.40498 14.65626,-15.19949 z"
         sodipodi:nodetypes="ccsccssccscccccccccsccsccsccsscccsssc" />
    </g>
  </g>
</svg>
